# xmcd
#
# Track frame offsets:
#	150
#	16119
#	30704
#	47418
#	64558
#	80244
#	97816
#	113585
#	132131
#	153832
#	170604
#	187416
#	201806
#	222396
#	236742
#	262814
#	290992
#	308516
#	325457
#	340662
#
# Disc length: 4807 seconds
#
# Revision: 1
# Processed by: cddbd v1.4PL0 Copyright (c) Steve Scherf et al.
# Submitted via: audiograbber 1.80
#
DISCID=1812c514
DTITLE=All-Stars Disco - Disco #10
DYEAR=1900
DGENRE=
TTITLE0=Joe Dollan  - Midnight Lover
TTITLE1=G. Moroder - Love Theme From "Flash Dance"
TTITLE2=Ricchie Poveri - Voulez Vous Danser
TTITLE3=E - Type
TTITLE4=Mike Oldfield - Moonlight Shadow
TTITLE5=Bad Boys Blue - Save Your Love
TTITLE6=Ace Of Base - Happy Nation
TTITLE7=Zhi - Vago
TTITLE8=Michael Jackson - Billie Jean
TTITLE9=Savage  - Only You
TTITLE10=Dolls United feat. Jim Knopf - Eine Insel Mit Zwei Bergen
TTITLE11=Baccara - Sorry, I'm Lady
TTITLE12=Bonnie Taylor - Holding Out For A Hero
TTITLE13=Pin - Occhio
TTITLE14=La Bionda - Deserts Of Mars
TTITLE15=Stevie Wonder - I Just Called To Say
TTITLE16=Space - Just Blue
TTITLE17=Inner Circle - Sweat (A La La La La Long)
TTITLE18=Modern Talking - Atlantis Calling
TTITLE19=Abba - Happy New Year
EXTD=
EXTT0=
EXTT1=
EXTT2=
EXTT3=
EXTT4=
EXTT5=
EXTT6=
EXTT7=
EXTT8=
EXTT9=
EXTT10=
EXTT11=
EXTT12=
EXTT13=
EXTT14=
EXTT15=
EXTT16=
EXTT17=
EXTT18=
EXTT19=
PLAYORDER=
